<?xml version='1.0' encoding='utf-8'?>
<svg xmlns="http://www.w3.org/2000/svg" width="85" height="85" viewBox="0 0 85 85" fill="none">
<path d="M80 30C82.7614 30 85 32.2386 85 35V80C85 82.7614 82.7614 85 80 85H35C32.2386 85 30 82.7614 30 80V69H65C67.2091 69 69 67.2091 69 65V30H80ZM65 16C67.2091 16 69 17.7909 69 20V30H55V50C55 52.7614 52.7614 55 50 55H30V69H20C17.7909 69 16 67.2091 16 65V55H30V35C30 32.2386 32.2386 30 35 30H55V16H65ZM50 0C52.7614 0 55 2.23858 55 5V16H20C17.7909 16 16 17.7909 16 20V55H5C2.23858 55 0 52.7614 0 50V5C0 2.23858 2.23858 0 5 0H50Z" fill="black"/>
</svg>
